<mxfile host="app.diagrams.net" modified="2024-05-05T14:55:24.164Z" agent="Mozilla/5.0 (Macintosh; Intel Mac OS X 10_15_7) AppleWebKit/605.1.15 (KHTML, like Gecko) Version/17.4.1 Safari/605.1.15" etag="gWqBDRNJl_jILSKCgWqF" version="24.3.1" type="github">
  <diagram name="Сторінка-1" id="OLbQZZe79muV6POQJRs1">
    <mxGraphModel dx="1194" dy="797" grid="1" gridSize="10" guides="1" tooltips="1" connect="1" arrows="1" fold="1" page="1" pageScale="1" pageWidth="827" pageHeight="1169" math="0" shadow="0">
      <root>
        <mxCell id="0" />
        <mxCell id="1" parent="0" />
        <mxCell id="8znKJa2xCU2qv2X8-juX-1" value="&lt;font style=&quot;font-size: 18px;&quot; face=&quot;Times New Roman&quot;&gt;Start&lt;/font&gt;" style="ellipse;whiteSpace=wrap;html=1;fillColor=#d5e8d4;strokeColor=#82b366;" parent="1" vertex="1">
          <mxGeometry x="330" y="20" width="110" height="50" as="geometry" />
        </mxCell>
        <mxCell id="8znKJa2xCU2qv2X8-juX-3" value="" style="endArrow=classic;html=1;rounded=0;exitX=0.5;exitY=1;exitDx=0;exitDy=0;" parent="1" source="8znKJa2xCU2qv2X8-juX-1" target="8znKJa2xCU2qv2X8-juX-4" edge="1">
          <mxGeometry width="50" height="50" relative="1" as="geometry">
            <mxPoint x="390" y="340" as="sourcePoint" />
            <mxPoint x="385" y="110" as="targetPoint" />
          </mxGeometry>
        </mxCell>
        <mxCell id="8znKJa2xCU2qv2X8-juX-4" value="&lt;font face=&quot;Times New Roman&quot;&gt;Input string to 70&amp;nbsp;&lt;/font&gt;&lt;div&gt;&lt;font face=&quot;Times New Roman&quot;&gt;symbols&lt;/font&gt;&lt;/div&gt;" style="shape=parallelogram;perimeter=parallelogramPerimeter;whiteSpace=wrap;html=1;fixedSize=1;fillColor=#e1d5e7;strokeColor=#9673a6;" parent="1" vertex="1">
          <mxGeometry x="320" y="110" width="125" height="50" as="geometry" />
        </mxCell>
        <mxCell id="8znKJa2xCU2qv2X8-juX-5" value="" style="endArrow=classic;html=1;rounded=0;exitX=0.456;exitY=1.04;exitDx=0;exitDy=0;exitPerimeter=0;" parent="1" source="8znKJa2xCU2qv2X8-juX-4" target="8znKJa2xCU2qv2X8-juX-6" edge="1">
          <mxGeometry width="50" height="50" relative="1" as="geometry">
            <mxPoint x="390" y="340" as="sourcePoint" />
            <mxPoint x="377" y="200" as="targetPoint" />
          </mxGeometry>
        </mxCell>
        <mxCell id="8znKJa2xCU2qv2X8-juX-6" value="length &amp;gt; 70" style="rhombus;whiteSpace=wrap;html=1;fillColor=#fff2cc;strokeColor=#d6b656;" parent="1" vertex="1">
          <mxGeometry x="306" y="200" width="134" height="80" as="geometry" />
        </mxCell>
        <mxCell id="8znKJa2xCU2qv2X8-juX-7" value="" style="endArrow=classic;html=1;rounded=0;exitX=1;exitY=0.5;exitDx=0;exitDy=0;" parent="1" source="8znKJa2xCU2qv2X8-juX-6" target="8znKJa2xCU2qv2X8-juX-8" edge="1">
          <mxGeometry width="50" height="50" relative="1" as="geometry">
            <mxPoint x="400" y="290" as="sourcePoint" />
            <mxPoint x="480" y="240" as="targetPoint" />
          </mxGeometry>
        </mxCell>
        <mxCell id="8znKJa2xCU2qv2X8-juX-8" value="ERROR: The string must contain no more than 70 characters" style="shape=parallelogram;perimeter=parallelogramPerimeter;whiteSpace=wrap;html=1;fixedSize=1;fillColor=#e1d5e7;strokeColor=#9673a6;" parent="1" vertex="1">
          <mxGeometry x="480" y="210" width="170" height="60" as="geometry" />
        </mxCell>
        <mxCell id="8znKJa2xCU2qv2X8-juX-9" value="" style="endArrow=classic;html=1;rounded=0;exitX=0.5;exitY=1;exitDx=0;exitDy=0;" parent="1" source="8znKJa2xCU2qv2X8-juX-6" target="8znKJa2xCU2qv2X8-juX-10" edge="1">
          <mxGeometry width="50" height="50" relative="1" as="geometry">
            <mxPoint x="390" y="340" as="sourcePoint" />
            <mxPoint x="373" y="320" as="targetPoint" />
          </mxGeometry>
        </mxCell>
        <mxCell id="8znKJa2xCU2qv2X8-juX-10" value="&lt;font face=&quot;Times New Roman&quot;&gt;&lt;font&gt;&lt;font style=&quot;font-size: 14px;&quot;&gt;length &amp;lt;&lt;/font&gt;&lt;font style=&quot;font-size: 14px;&quot;&gt;&amp;nbsp;5&lt;/font&gt;&lt;/font&gt;&lt;/font&gt;" style="rhombus;whiteSpace=wrap;html=1;fillColor=#fff2cc;strokeColor=#d6b656;" parent="1" vertex="1">
          <mxGeometry x="306" y="320" width="133" height="80" as="geometry" />
        </mxCell>
        <mxCell id="8znKJa2xCU2qv2X8-juX-11" value="" style="endArrow=classic;html=1;rounded=0;exitX=1;exitY=0.5;exitDx=0;exitDy=0;entryX=0.065;entryY=0.375;entryDx=0;entryDy=0;entryPerimeter=0;" parent="1" source="8znKJa2xCU2qv2X8-juX-10" target="8znKJa2xCU2qv2X8-juX-12" edge="1">
          <mxGeometry width="50" height="50" relative="1" as="geometry">
            <mxPoint x="390" y="340" as="sourcePoint" />
            <mxPoint x="480" y="360" as="targetPoint" />
          </mxGeometry>
        </mxCell>
        <mxCell id="8znKJa2xCU2qv2X8-juX-12" value="ERROR: The string must contain at least 5 characters" style="shape=parallelogram;perimeter=parallelogramPerimeter;whiteSpace=wrap;html=1;fixedSize=1;fillColor=#e1d5e7;strokeColor=#9673a6;" parent="1" vertex="1">
          <mxGeometry x="460" y="330" width="170" height="80" as="geometry" />
        </mxCell>
        <mxCell id="8znKJa2xCU2qv2X8-juX-13" value="" style="endArrow=classic;html=1;rounded=0;exitX=0.5;exitY=1;exitDx=0;exitDy=0;" parent="1" source="8znKJa2xCU2qv2X8-juX-10" target="8znKJa2xCU2qv2X8-juX-14" edge="1">
          <mxGeometry width="50" height="50" relative="1" as="geometry">
            <mxPoint x="390" y="330" as="sourcePoint" />
            <mxPoint x="373" y="440" as="targetPoint" />
          </mxGeometry>
        </mxCell>
        <mxCell id="8znKJa2xCU2qv2X8-juX-14" value="words = []" style="rounded=0;whiteSpace=wrap;html=1;fillColor=#dae8fc;strokeColor=#6c8ebf;" parent="1" vertex="1">
          <mxGeometry x="315.25" y="430" width="120" height="60" as="geometry" />
        </mxCell>
        <mxCell id="8znKJa2xCU2qv2X8-juX-16" value="" style="endArrow=classic;html=1;rounded=0;exitX=0.5;exitY=1;exitDx=0;exitDy=0;" parent="1" source="8znKJa2xCU2qv2X8-juX-14" target="8znKJa2xCU2qv2X8-juX-27" edge="1">
          <mxGeometry width="50" height="50" relative="1" as="geometry">
            <mxPoint x="400" y="440" as="sourcePoint" />
            <mxPoint x="375" y="520" as="targetPoint" />
          </mxGeometry>
        </mxCell>
        <mxCell id="8znKJa2xCU2qv2X8-juX-17" value="for char in ST1" style="rounded=0;whiteSpace=wrap;html=1;fillColor=#dae8fc;strokeColor=#6c8ebf;" parent="1" vertex="1">
          <mxGeometry x="315.25" y="610" width="120" height="60" as="geometry" />
        </mxCell>
        <mxCell id="8znKJa2xCU2qv2X8-juX-20" value="" style="endArrow=classic;html=1;rounded=0;exitX=0.5;exitY=1;exitDx=0;exitDy=0;" parent="1" source="8znKJa2xCU2qv2X8-juX-17" edge="1">
          <mxGeometry width="50" height="50" relative="1" as="geometry">
            <mxPoint x="400" y="440" as="sourcePoint" />
            <mxPoint x="375" y="700" as="targetPoint" />
          </mxGeometry>
        </mxCell>
        <mxCell id="8znKJa2xCU2qv2X8-juX-22" value="" style="endArrow=classic;html=1;rounded=0;exitX=1;exitY=0.5;exitDx=0;exitDy=0;entryX=0;entryY=0.5;entryDx=0;entryDy=0;" parent="1" source="8znKJa2xCU2qv2X8-juX-32" target="8znKJa2xCU2qv2X8-juX-26" edge="1">
          <mxGeometry width="50" height="50" relative="1" as="geometry">
            <mxPoint x="437" y="780" as="sourcePoint" />
            <mxPoint x="480" y="650" as="targetPoint" />
          </mxGeometry>
        </mxCell>
        <mxCell id="8znKJa2xCU2qv2X8-juX-26" value="&lt;font style=&quot;caret-color: rgb(0, 0, 0); color: rgb(0, 0, 0); font-family: &amp;quot;Times New Roman&amp;quot;; font-style: normal; font-variant-caps: normal; font-weight: 400; letter-spacing: normal; orphans: auto; text-align: center; text-indent: 0px; text-transform: none; white-space: normal; widows: auto; word-spacing: 0px; -webkit-text-stroke-width: 0px; text-decoration: none; font-size: 14px;&quot;&gt;length &amp;gt;&lt;/font&gt;&lt;font style=&quot;caret-color: rgb(0, 0, 0); color: rgb(0, 0, 0); font-family: &amp;quot;Times New Roman&amp;quot;; font-style: normal; font-variant-caps: normal; font-weight: 400; letter-spacing: normal; orphans: auto; text-align: center; text-indent: 0px; text-transform: none; white-space: normal; widows: auto; word-spacing: 0px; -webkit-text-stroke-width: 0px; text-decoration: none; font-size: 14px;&quot;&gt;&amp;nbsp;5&lt;/font&gt;" style="rhombus;whiteSpace=wrap;html=1;fillColor=#fff2cc;strokeColor=#d6b656;" parent="1" vertex="1">
          <mxGeometry x="480" y="700" width="120" height="80" as="geometry" />
        </mxCell>
        <mxCell id="8znKJa2xCU2qv2X8-juX-27" value="word = &quot;&quot;" style="rounded=0;whiteSpace=wrap;html=1;fillColor=#dae8fc;strokeColor=#6c8ebf;" parent="1" vertex="1">
          <mxGeometry x="315.25" y="520" width="120" height="60" as="geometry" />
        </mxCell>
        <mxCell id="8znKJa2xCU2qv2X8-juX-31" value="" style="endArrow=classic;html=1;rounded=0;exitX=0.5;exitY=1;exitDx=0;exitDy=0;entryX=0.5;entryY=0;entryDx=0;entryDy=0;" parent="1" source="8znKJa2xCU2qv2X8-juX-27" target="8znKJa2xCU2qv2X8-juX-17" edge="1">
          <mxGeometry width="50" height="50" relative="1" as="geometry">
            <mxPoint x="410" y="590" as="sourcePoint" />
            <mxPoint x="460" y="540" as="targetPoint" />
          </mxGeometry>
        </mxCell>
        <mxCell id="8znKJa2xCU2qv2X8-juX-32" value="char == &quot;&quot;" style="rhombus;whiteSpace=wrap;html=1;fillColor=#fff2cc;strokeColor=#d6b656;" parent="1" vertex="1">
          <mxGeometry x="309" y="700" width="132.5" height="80" as="geometry" />
        </mxCell>
        <mxCell id="8znKJa2xCU2qv2X8-juX-33" value="" style="endArrow=classic;html=1;rounded=0;exitX=0.5;exitY=1;exitDx=0;exitDy=0;" parent="1" source="8znKJa2xCU2qv2X8-juX-32" edge="1">
          <mxGeometry width="50" height="50" relative="1" as="geometry">
            <mxPoint x="420" y="610" as="sourcePoint" />
            <mxPoint x="375" y="810" as="targetPoint" />
          </mxGeometry>
        </mxCell>
        <mxCell id="8znKJa2xCU2qv2X8-juX-34" value="" style="endArrow=classic;html=1;rounded=0;exitX=0.5;exitY=0;exitDx=0;exitDy=0;" parent="1" source="8znKJa2xCU2qv2X8-juX-26" edge="1">
          <mxGeometry width="50" height="50" relative="1" as="geometry">
            <mxPoint x="420" y="610" as="sourcePoint" />
            <mxPoint x="540" y="500" as="targetPoint" />
          </mxGeometry>
        </mxCell>
        <mxCell id="8znKJa2xCU2qv2X8-juX-35" value="" style="endArrow=classic;html=1;rounded=0;" parent="1" edge="1">
          <mxGeometry width="50" height="50" relative="1" as="geometry">
            <mxPoint x="540" y="500" as="sourcePoint" />
            <mxPoint x="370" y="500" as="targetPoint" />
          </mxGeometry>
        </mxCell>
        <mxCell id="8znKJa2xCU2qv2X8-juX-37" value="Yes" style="text;html=1;align=center;verticalAlign=middle;whiteSpace=wrap;rounded=0;" parent="1" vertex="1">
          <mxGeometry x="420" y="710" width="60" height="30" as="geometry" />
        </mxCell>
        <mxCell id="8znKJa2xCU2qv2X8-juX-38" value="Yes" style="text;html=1;align=center;verticalAlign=middle;whiteSpace=wrap;rounded=0;" parent="1" vertex="1">
          <mxGeometry x="535" y="670" width="60" height="30" as="geometry" />
        </mxCell>
        <mxCell id="8znKJa2xCU2qv2X8-juX-39" value="No" style="text;html=1;align=center;verticalAlign=middle;whiteSpace=wrap;rounded=0;" parent="1" vertex="1">
          <mxGeometry x="370" y="780" width="60" height="30" as="geometry" />
        </mxCell>
        <mxCell id="8znKJa2xCU2qv2X8-juX-45" value="" style="endArrow=classic;html=1;rounded=0;exitX=1;exitY=0.5;exitDx=0;exitDy=0;" parent="1" source="8znKJa2xCU2qv2X8-juX-26" target="8znKJa2xCU2qv2X8-juX-46" edge="1">
          <mxGeometry width="50" height="50" relative="1" as="geometry">
            <mxPoint x="440" y="460" as="sourcePoint" />
            <mxPoint x="640" y="740" as="targetPoint" />
          </mxGeometry>
        </mxCell>
        <mxCell id="8znKJa2xCU2qv2X8-juX-46" value="word=&quot;&quot;" style="rounded=0;whiteSpace=wrap;html=1;fillColor=#dae8fc;strokeColor=#6c8ebf;" parent="1" vertex="1">
          <mxGeometry x="640" y="710" width="120" height="60" as="geometry" />
        </mxCell>
        <mxCell id="8znKJa2xCU2qv2X8-juX-47" value="No" style="text;html=1;align=center;verticalAlign=middle;whiteSpace=wrap;rounded=0;" parent="1" vertex="1">
          <mxGeometry x="580" y="710" width="60" height="30" as="geometry" />
        </mxCell>
        <mxCell id="8znKJa2xCU2qv2X8-juX-48" value="&lt;font style=&quot;caret-color: rgb(0, 0, 0); color: rgb(0, 0, 0); font-style: normal; font-variant-caps: normal; font-weight: 400; letter-spacing: normal; orphans: auto; text-align: center; text-indent: 0px; text-transform: none; white-space: normal; widows: auto; word-spacing: 0px; -webkit-text-stroke-width: 0px; text-decoration: none; font-family: &amp;quot;Times New Roman&amp;quot;; font-size: 14px;&quot;&gt;length &amp;gt;&lt;/font&gt;&lt;font style=&quot;caret-color: rgb(0, 0, 0); color: rgb(0, 0, 0); font-style: normal; font-variant-caps: normal; font-weight: 400; letter-spacing: normal; orphans: auto; text-align: center; text-indent: 0px; text-transform: none; white-space: normal; widows: auto; word-spacing: 0px; -webkit-text-stroke-width: 0px; text-decoration: none; font-family: &amp;quot;Times New Roman&amp;quot;; font-size: 14px;&quot;&gt;&amp;nbsp;5&lt;/font&gt;" style="rhombus;whiteSpace=wrap;html=1;fillColor=#fff2cc;strokeColor=#d6b656;" parent="1" vertex="1">
          <mxGeometry x="315.25" y="810" width="120" height="80" as="geometry" />
        </mxCell>
        <mxCell id="8znKJa2xCU2qv2X8-juX-49" value="" style="endArrow=classic;html=1;rounded=0;exitX=1;exitY=0.5;exitDx=0;exitDy=0;" parent="1" source="8znKJa2xCU2qv2X8-juX-48" target="8znKJa2xCU2qv2X8-juX-50" edge="1">
          <mxGeometry width="50" height="50" relative="1" as="geometry">
            <mxPoint x="440" y="840" as="sourcePoint" />
            <mxPoint x="470" y="850" as="targetPoint" />
          </mxGeometry>
        </mxCell>
        <mxCell id="8znKJa2xCU2qv2X8-juX-50" value="word=&quot;&quot;" style="rounded=0;whiteSpace=wrap;html=1;fillColor=#dae8fc;strokeColor=#6c8ebf;" parent="1" vertex="1">
          <mxGeometry x="475" y="820" width="120" height="60" as="geometry" />
        </mxCell>
        <mxCell id="8znKJa2xCU2qv2X8-juX-51" value="Yes" style="text;html=1;align=center;verticalAlign=middle;whiteSpace=wrap;rounded=0;" parent="1" vertex="1">
          <mxGeometry x="420" y="820" width="60" height="30" as="geometry" />
        </mxCell>
        <mxCell id="8znKJa2xCU2qv2X8-juX-52" value="" style="endArrow=classic;html=1;rounded=0;exitX=0.5;exitY=1;exitDx=0;exitDy=0;" parent="1" source="8znKJa2xCU2qv2X8-juX-48" target="8znKJa2xCU2qv2X8-juX-53" edge="1">
          <mxGeometry width="50" height="50" relative="1" as="geometry">
            <mxPoint x="440" y="730" as="sourcePoint" />
            <mxPoint x="375" y="920" as="targetPoint" />
          </mxGeometry>
        </mxCell>
        <mxCell id="8znKJa2xCU2qv2X8-juX-53" value="length == 0" style="rhombus;whiteSpace=wrap;html=1;fillColor=#fff2cc;strokeColor=#d6b656;" parent="1" vertex="1">
          <mxGeometry x="318.25" y="920" width="114" height="80" as="geometry" />
        </mxCell>
        <mxCell id="8znKJa2xCU2qv2X8-juX-54" value="" style="endArrow=classic;html=1;rounded=0;exitX=1;exitY=0.5;exitDx=0;exitDy=0;" parent="1" source="8znKJa2xCU2qv2X8-juX-53" target="8znKJa2xCU2qv2X8-juX-55" edge="1">
          <mxGeometry width="50" height="50" relative="1" as="geometry">
            <mxPoint x="440" y="730" as="sourcePoint" />
            <mxPoint x="470" y="960" as="targetPoint" />
          </mxGeometry>
        </mxCell>
        <mxCell id="8znKJa2xCU2qv2X8-juX-55" value="ERROR: The string must contain words longer than 5 characters" style="shape=parallelogram;perimeter=parallelogramPerimeter;whiteSpace=wrap;html=1;fixedSize=1;fillColor=#e1d5e7;strokeColor=#9673a6;" parent="1" vertex="1">
          <mxGeometry x="460" y="925" width="170" height="70" as="geometry" />
        </mxCell>
        <mxCell id="8znKJa2xCU2qv2X8-juX-56" value="Yes" style="text;html=1;align=center;verticalAlign=middle;whiteSpace=wrap;rounded=0;" parent="1" vertex="1">
          <mxGeometry x="420" y="930" width="60" height="30" as="geometry" />
        </mxCell>
        <mxCell id="8znKJa2xCU2qv2X8-juX-57" value="" style="endArrow=classic;html=1;rounded=0;exitX=0.5;exitY=1;exitDx=0;exitDy=0;" parent="1" source="8znKJa2xCU2qv2X8-juX-53" edge="1">
          <mxGeometry width="50" height="50" relative="1" as="geometry">
            <mxPoint x="440" y="730" as="sourcePoint" />
            <mxPoint x="375" y="1030" as="targetPoint" />
          </mxGeometry>
        </mxCell>
        <mxCell id="8znKJa2xCU2qv2X8-juX-59" value="No" style="text;html=1;align=center;verticalAlign=middle;whiteSpace=wrap;rounded=0;" parent="1" vertex="1">
          <mxGeometry x="382" y="1000" width="60" height="30" as="geometry" />
        </mxCell>
        <mxCell id="8znKJa2xCU2qv2X8-juX-60" value="Output&amp;nbsp;Words longer than 5 characters" style="shape=parallelogram;perimeter=parallelogramPerimeter;whiteSpace=wrap;html=1;fixedSize=1;fillColor=#e1d5e7;strokeColor=#9673a6;" parent="1" vertex="1">
          <mxGeometry x="284" y="1030" width="177" height="60" as="geometry" />
        </mxCell>
        <mxCell id="8znKJa2xCU2qv2X8-juX-62" value="End" style="ellipse;whiteSpace=wrap;html=1;fillColor=#d5e8d4;strokeColor=#82b366;" parent="1" vertex="1">
          <mxGeometry x="316" y="1120" width="113" height="40" as="geometry" />
        </mxCell>
        <mxCell id="8znKJa2xCU2qv2X8-juX-63" value="" style="endArrow=classic;html=1;rounded=0;exitX=0.5;exitY=1;exitDx=0;exitDy=0;" parent="1" source="8znKJa2xCU2qv2X8-juX-60" target="8znKJa2xCU2qv2X8-juX-62" edge="1">
          <mxGeometry width="50" height="50" relative="1" as="geometry">
            <mxPoint x="460" y="850" as="sourcePoint" />
            <mxPoint x="510" y="800" as="targetPoint" />
          </mxGeometry>
        </mxCell>
      </root>
    </mxGraphModel>
  </diagram>
</mxfile>
